<svg width="60" height="60" viewBox="0 0 60 60" fill="none" xmlns="http://www.w3.org/2000/svg">
<g id="Frame 6488">
<g id="Group 42">
<path id="Vector" opacity="0.5" d="M50.0006 24.1894C50.0006 35.3825 41.0143 44.4959 30.0004 44.4959C18.9634 44.4959 9.97712 35.3825 10.0002 24.1894C10.0002 13.0196 18.9634 3.92962 29.9773 3.90625C40.9913 3.90625 49.9775 12.9963 50.0006 24.1894ZM14.332 24.166C14.309 32.9289 21.2906 40.056 29.9312 40.1028C38.5488 40.1495 45.6227 33.0457 45.6687 24.3062C45.7148 15.5433 38.7101 8.36947 30.0925 8.34611C21.4058 8.29937 14.355 15.3798 14.332 24.166Z" fill="#5398EF"/>
<path id="Vector_2" opacity="0.5" d="M26.6669 45.5385C25.632 46.5596 24.643 47.5354 23.6541 48.4884C21.2392 50.8711 18.8474 53.231 16.4326 55.6137C15.8346 56.2036 15.1676 56.249 14.6847 55.7498C14.4087 55.4775 14.3627 55.1371 14.3627 54.7741C14.3627 52.2326 14.3857 49.6684 14.3857 47.1269C14.3857 45.3797 13.3738 44.3812 11.5799 44.4039C9.00404 44.4039 6.4512 44.4039 3.87537 44.4266C3.30041 44.4266 2.81744 44.2904 2.58745 43.7232C2.35747 43.1559 2.61045 42.7474 3.00143 42.3616C5.62326 39.7748 8.24509 37.1879 10.8899 34.5557C14.4317 40.6371 19.6293 44.2904 26.6669 45.5385Z" fill="#5398EF"/>
<path id="Vector_3" opacity="0.5" d="M33.333 45.5302C40.3409 44.2857 45.5738 40.6652 49.1238 34.5557C49.7924 35.2119 50.4148 35.8681 51.0372 36.5017C53.0197 38.4703 55.0252 40.4163 57.0077 42.3849C57.5149 42.8827 57.6301 43.3579 57.3535 43.8331C57.0999 44.263 56.708 44.4214 56.2009 44.4214C53.619 44.3988 51.0141 44.3988 48.4323 44.3988C46.6111 44.3988 45.5968 45.3492 45.5968 47.1594C45.5968 49.6937 45.5968 52.2054 45.6199 54.7398C45.6199 55.3055 45.4816 55.7806 44.9053 56.0069C44.329 56.2332 43.914 55.9843 43.5221 55.5996C40.2256 52.3638 36.9292 49.128 33.6096 45.8696C33.5635 45.7565 33.4713 45.666 33.333 45.5302Z" fill="#5398EF"/>
<path id="Subtract" fill-rule="evenodd" clip-rule="evenodd" d="M42.9561 24.1237C42.9561 31.2202 37.1687 36.973 30.0295 36.973C22.8903 36.973 17.1029 31.2202 17.1029 24.1237C17.1029 17.0272 22.8903 11.2744 30.0295 11.2744C37.1687 11.2744 42.9561 17.0272 42.9561 24.1237ZM30.9576 24.8404C31.3521 25.1403 31.5378 25.5556 31.5842 26.04C31.6074 27.0089 30.6327 27.8394 29.658 27.6548C28.9849 27.5395 28.428 27.2165 27.8942 26.8244C27.314 26.4091 26.6874 26.4783 26.2929 26.9858C25.8983 27.4703 26.0144 28.1393 26.5714 28.5545C27.198 29.039 27.871 29.4081 28.66 29.5695C29.101 29.6618 29.2402 29.8464 29.2402 30.3077V30.9767C29.2634 31.415 29.5419 31.7149 29.9597 31.738C30.3774 31.738 30.7023 31.4381 30.7255 30.9998V30.2847C30.7255 29.7541 30.7951 29.6388 31.3289 29.4773C32.0019 29.2927 32.5589 28.9236 32.9999 28.37C34.3459 26.6398 33.8585 24.0792 31.9555 22.9719C31.4914 22.695 31.004 22.4644 30.5166 22.2567C30.3529 22.1789 30.1848 22.1075 30.0163 22.0361C29.6356 21.8745 29.2532 21.7123 28.9153 21.4724C28.4512 21.1494 28.2191 20.7111 28.3351 20.319C28.4512 19.9037 28.9385 19.5577 29.4723 19.5115C30.0525 19.4654 30.5631 19.673 31.0504 19.9729C31.6306 20.342 32.2572 20.2267 32.6053 19.6961C32.9534 19.1655 32.791 18.5427 32.2108 18.1505C31.8163 17.9198 31.4217 17.7353 30.9808 17.6199C30.7951 17.5738 30.7023 17.5276 30.6791 17.2969C30.6559 16.9278 30.3542 16.6972 30.0061 16.6741C29.6348 16.651 29.3331 16.8125 29.2634 17.1585C29.1979 17.4628 29.0293 17.4804 28.8354 17.5007C28.8234 17.502 28.8114 17.5032 28.7993 17.5046C27.5461 17.7122 26.6178 18.3812 26.2465 19.6038C25.8751 20.8495 26.2929 21.9338 27.2908 22.7873C27.7745 23.1912 28.3227 23.4668 28.8816 23.7478C28.9931 23.8038 29.1051 23.8601 29.217 23.9177C29.3953 24.0099 29.5781 24.0955 29.7611 24.1813C30.1736 24.3746 30.5879 24.5688 30.9576 24.8404Z" fill="#146CDA"/>
</g>
</g>
</svg>
