<svg width="60" height="60" viewBox="0 0 60 60" fill="none" xmlns="http://www.w3.org/2000/svg">
<g id="Frame 6486">
<g id="Group 44">
<path id="Vector" d="M1.98083 18.0168C2.20958 17.6883 2.18417 17.284 2.28583 16.9049C2.79416 15.1361 3.78541 13.7969 5.48831 12.9883C7.16579 12.205 8.86869 11.4974 10.597 10.8657C12.122 10.3098 13.5453 10.8405 14.3841 12.2302C15.782 14.6308 17.1799 17.0313 18.5523 19.4318C19.4927 21.0743 19.0607 22.8178 17.3832 23.7275C15.8328 24.5866 14.8161 25.7995 14.562 27.5936C14.3586 29.0087 14.7399 30.2721 15.604 31.3839C17.4086 33.7592 19.3657 35.9828 21.4752 38.0801C23.5848 40.2027 25.8469 42.1484 28.236 43.9425C30.8793 45.9387 34.2089 45.2817 35.8863 42.4264C37.0301 40.4807 38.6567 40.0511 40.6138 41.1629C42.9267 42.4769 45.2141 43.8161 47.527 45.1301C49.0774 46.0145 49.5858 47.4548 48.9504 49.0973C48.3404 50.6134 47.705 52.1295 47.0696 53.6204C45.9004 56.3494 43.7146 57.3602 40.9442 57.4865C38.0976 57.6129 35.4288 56.8548 32.811 55.8188C27.931 53.8478 23.6356 50.9672 19.6707 47.6064C14.5874 43.2855 10.1649 38.4086 6.68287 32.6979C4.77664 29.5898 3.22624 26.3049 2.41292 22.7168C2.28583 22.1608 2.31125 21.5544 2.03167 21.0237C1.98084 20.0383 1.98083 19.0275 1.98083 18.0168Z" fill="#A9CCF8"/>
<path id="Vector_2" d="M34.8918 6.0045C29.5157 6.1053 24.9588 7.86946 21.1444 11.4482C20.6836 11.8766 20.1972 12.2547 19.5059 12.2043C18.7379 12.1538 18.2003 11.7758 17.9443 11.0449C17.6883 10.3393 17.8419 9.70923 18.4051 9.17998C20.5812 7.06299 23.0132 5.34924 25.8804 4.29074C34.8406 0.938839 43.0583 2.27456 50.3032 8.44911C54.7577 12.2547 57.2665 17.1943 57.8809 22.9656C58.6234 30.0979 56.3705 36.2976 51.3272 41.4641C50.5592 42.2454 49.484 42.2706 48.7416 41.5901C47.9992 40.8844 47.9992 39.8259 48.7672 39.0447C51.7113 36.0456 53.6057 32.5425 54.2201 28.4093C55.1161 22.2852 53.4777 16.8919 49.2536 12.3303C45.9256 8.72634 41.7271 6.71016 36.8118 6.18091C36.095 6.0297 35.4294 6.0297 34.8918 6.0045Z" fill="#146CDA"/>
<path id="Vector_3" d="M28.2189 29.8374C30.0017 29.8374 31.6826 29.8374 33.3381 29.8374C34.5606 29.8374 35.3756 30.9018 35.07 32.0423C34.8917 32.8026 34.2295 33.3095 33.3891 33.3348C32.6505 33.3601 31.9373 33.3348 31.1987 33.3348C29.0594 33.3348 26.9454 33.3348 24.8061 33.3348C23.0996 33.3348 22.3356 32.0169 23.1251 30.5217C24.0929 28.697 25.5701 27.3284 27.1237 26.0613C28.1425 25.2249 29.2376 24.4393 30.2055 23.5523C30.7148 23.0708 31.0205 22.5132 31.0714 21.8036C31.1478 20.8405 30.7148 20.0549 29.8234 19.6747C29.2631 19.4213 28.6773 19.3453 28.0661 19.4467C26.8181 19.6747 26.3342 20.283 26.3851 21.5502C26.4361 22.944 25.1881 23.8817 23.9656 23.3749C23.227 23.0708 22.8704 22.4625 22.8195 21.6769C22.6667 18.4836 24.8315 16.076 28.0661 15.8986C31.1733 15.7212 33.7456 17.3938 34.4078 20.0802C34.9681 22.3358 34.4588 24.3633 32.7269 26.0359C31.5553 27.151 30.2309 28.0634 28.9829 29.1025C28.7792 29.3306 28.55 29.5333 28.2189 29.8374Z" fill="#146CDA"/>
<path id="Vector_4" d="M46.513 21.9375C46.513 23.2572 46.513 24.577 46.513 25.8967C46.513 26.252 46.564 26.4043 46.9723 26.4043C47.9163 26.4296 48.6307 27.191 48.6307 28.1554C48.6307 29.0945 47.9418 29.8558 46.9723 29.9066C46.6151 29.932 46.513 30.0081 46.5385 30.3634C46.564 30.871 46.564 31.3786 46.5385 31.8862C46.513 32.876 45.7731 33.612 44.8291 33.6374C43.8596 33.6627 43.0941 32.9775 43.0176 31.9877C42.9666 31.4547 42.9921 30.8964 43.0176 30.3634C43.0431 30.0081 42.9155 29.9066 42.5583 29.9066C40.5683 29.932 38.5782 29.9066 36.6136 29.932C35.7716 29.932 35.1083 29.6782 34.7256 28.9168C34.3429 28.1301 34.6235 27.4702 35.1338 26.8103C37.8638 23.5364 40.5683 20.2371 43.2982 16.9632C43.8851 16.2525 44.625 16.0241 45.3649 16.2779C46.1558 16.5571 46.564 17.1916 46.564 18.156C46.513 19.3996 46.513 20.6685 46.513 21.9375ZM40.0325 26.3789C41.002 26.3789 41.8184 26.3789 42.6604 26.3789C42.8645 26.3789 42.9666 26.3281 42.9666 26.1251C42.9666 25.0845 42.9666 24.044 42.9666 22.8512C41.946 24.0694 41.0275 25.1861 40.0325 26.3789Z" fill="#146CDA"/>
</g>
</g>
</svg>
