<svg width="60" height="60" viewBox="0 0 60 60" fill="none" xmlns="http://www.w3.org/2000/svg">
<g id="Frame 6487">
<g id="Group 43">
<path id="Vector" d="M29.229 1.6875C29.7559 1.6875 30.2578 1.6875 30.7848 1.6875C32.4911 2.03729 33.6454 3.23658 34.9 4.31094C35.5023 4.86062 36.1296 5.38531 36.7318 5.93498C36.9828 6.18483 37.2337 6.2348 37.585 6.20982C39.5674 6.05991 41.5247 5.90999 43.507 5.76008C46.2924 5.53522 48.4002 7.05931 49.0526 9.75771C49.429 11.3318 49.8305 12.9058 50.1818 14.4799C50.2571 14.8047 50.4327 15.0046 50.7088 15.1795C52.4653 16.2039 54.1967 17.2533 55.9533 18.2777C57.1828 19.0022 57.9858 20.0516 58.3622 21.4508C58.3873 21.5757 58.312 21.7506 58.4877 21.8256C58.4877 22.3752 58.4877 22.9249 58.4877 23.4746C58.312 23.9243 58.1615 24.3491 57.9858 24.7738C57.3334 26.3978 56.6559 27.9969 55.9783 29.6209C55.9031 29.8208 55.8278 30.0207 55.9282 30.2456C56.7813 32.3443 57.7098 34.4181 58.4877 36.5418C58.4877 37.0915 58.4877 37.6412 58.4877 38.1908C58.4626 38.2408 58.3873 38.2658 58.3873 38.3158C58.0611 39.9148 57.1326 41.0142 55.7525 41.8137C54.5731 42.4883 53.3937 43.2129 52.2395 43.9124C51.6121 44.2872 50.8091 44.5371 50.3826 45.0868C49.9811 45.6364 49.956 46.4609 49.7803 47.1855C49.7552 47.2605 49.7301 47.3354 49.7301 47.3854C49.5043 48.2599 49.3036 49.1344 49.1028 50.0088C48.3249 53.107 46.3175 54.5062 43.1055 54.2063C41.2737 54.0314 39.4168 53.9315 37.5599 53.7566C37.2588 53.7316 37.033 53.8066 36.8071 54.0065C35.6779 55.0059 34.5236 56.0053 33.3944 57.0047C31.3619 58.7536 28.6518 58.7536 26.6193 56.9797C25.4901 55.9803 24.3609 55.0059 23.2317 54.0065C22.9808 53.7816 22.7549 53.7066 22.4287 53.7316C20.2958 53.9065 18.1378 54.1064 16.0048 54.1814C13.6461 54.2813 11.6888 52.7822 11.0866 50.5085C10.6349 48.8595 10.2585 47.1855 9.8821 45.5115C9.78172 45.1117 9.60607 44.8869 9.25477 44.662C7.54843 43.6876 5.86718 42.6882 4.18593 41.6888C1.75189 40.2396 0.923816 37.7911 1.97773 35.1676C2.63015 33.5436 3.30767 31.9445 3.98519 30.3205C4.11066 29.9957 4.11066 29.7459 3.98519 29.446C3.28258 27.797 2.60506 26.148 1.92754 24.499C0.923813 22.0004 1.77698 19.5269 4.08556 18.1527C5.66643 17.2283 7.22222 16.2788 8.80309 15.3544C9.02893 15.2045 9.17949 15.0546 9.27986 14.7797C9.8821 12.8559 10.5094 10.957 11.1117 9.05813C11.7892 6.9094 13.897 5.43528 16.1554 5.58519C17.7112 5.68513 19.267 5.81005 20.7976 5.95996C22.8804 6.13486 22.8804 6.15985 24.4613 4.76068C24.7624 4.48584 25.0886 4.23599 25.3646 3.96115C26.544 3.0367 27.6732 2.03729 29.229 1.6875ZM48.3751 30.0457C48.3751 19.9766 40.1445 11.7815 30.032 11.7565C19.9194 11.7315 11.6888 19.9267 11.6637 29.9957C11.6386 40.0647 19.8943 48.3098 30.032 48.3098C40.1445 48.3098 48.3751 40.1147 48.3751 30.0457Z" fill="#A9CCF8"/>
<path id="Vector_2" d="M15.1444 29.9875C15.1444 21.7001 21.8213 14.9697 30.0124 14.9697C38.2034 14.9697 44.8555 21.7252 44.8555 30.0126C44.8555 38.3 38.1786 45.0303 29.9875 45.0303C21.7965 45.0303 15.1444 38.2749 15.1444 29.9875ZM39.8912 24.9648C39.8664 24.8895 39.8664 24.7388 39.8168 24.5881C39.4444 23.2571 37.9552 22.9055 36.9623 23.9352C34.2071 26.7227 31.452 29.4852 28.7216 32.2728C28.4238 32.5741 28.2749 32.5993 27.9522 32.2728C26.314 30.5902 24.651 28.9076 22.9879 27.225C22.2433 26.4967 21.2504 26.4716 20.5803 27.1246C19.9101 27.8026 19.9101 28.8323 20.6299 29.5605C22.7894 31.7705 24.9488 33.9554 27.1331 36.1402C27.8529 36.8685 28.8209 36.8685 29.5407 36.1653C32.842 32.8504 36.0936 29.5354 39.3948 26.2205C39.7175 25.894 39.8912 25.4922 39.8912 24.9648Z" fill="#146CDA"/>
</g>
</g>
</svg>
