<svg width="34" height="28" viewBox="0 0 34 28" fill="none" xmlns="http://www.w3.org/2000/svg">
<g id="01" opacity="0.3">
<path d="M16.7723 23.7299C18.4438 21.268 19.2626 17.9855 19.2626 13.8823C19.2626 9.77911 18.4438 6.49656 16.7723 4.03466C15.1348 1.57275 12.8492 0.341797 9.88128 0.341797C6.91339 0.341797 4.62776 1.57275 2.95619 4.03466C1.31873 6.49656 0.5 9.77911 0.5 13.8823C0.5 17.9855 1.31873 21.268 2.95619 23.7299C4.62776 26.1918 6.91339 27.4228 9.88128 27.4228C12.8492 27.4228 15.1348 26.1918 16.7723 23.7299ZM9.88128 23.245C6.36757 23.245 4.42308 19.8878 4.42308 13.8823C4.42308 7.87672 6.36757 4.51958 9.88128 4.51958C13.4291 4.51958 15.3395 7.87672 15.3395 13.8823C15.3395 19.8878 13.4291 23.245 9.88128 23.245Z" fill="#8E9BA6"/>
<path d="M23.8117 3.25132L24.7669 6.90688L29.5769 5.41482V26.9378H33.5V0.826718H30.0886L23.8117 3.25132Z" fill="#8E9BA6"/>
</g>
</svg>
