<svg width="48" height="31" viewBox="0 0 48 31" fill="none" xmlns="http://www.w3.org/2000/svg">
<g id="01" opacity="0.3">
<path d="M19.6801 26.318C21.6401 23.5951 22.6001 19.9645 22.6001 15.4263C22.6001 10.8881 21.6401 7.25753 19.6801 4.53459C17.7601 1.81166 15.0801 0.450195 11.6001 0.450195C8.1201 0.450195 5.4401 1.81166 3.4801 4.53459C1.5601 7.25753 0.600098 10.8881 0.600098 15.4263C0.600098 19.9645 1.5601 23.5951 3.4801 26.318C5.4401 29.041 8.1201 30.4024 11.6001 30.4024C15.0801 30.4024 17.7601 29.041 19.6801 26.318ZM11.6001 25.7817C7.4801 25.7817 5.2001 22.0686 5.2001 15.4263C5.2001 8.78402 7.4801 5.07093 11.6001 5.07093C15.7601 5.07093 18.0001 8.78402 18.0001 15.4263C18.0001 22.0686 15.7601 25.7817 11.6001 25.7817Z" fill="#8E9BA6"/>
<path d="M47.2895 29.8661V25.2866H35.6895L42.0095 18.7681C45.1695 15.4263 46.7695 12.2908 46.7695 9.36161C46.7695 6.59742 45.8895 4.45208 44.1295 2.84308C42.3695 1.23407 40.2495 0.450195 37.8095 0.450195C33.9295 0.450195 30.5295 2.47177 28.7695 6.30862L32.6495 8.66025C33.7695 6.26737 35.4895 5.07093 37.8495 5.07093C40.3695 5.07093 42.1695 6.72119 42.1695 9.52664C42.1695 11.3007 40.9695 13.446 38.6095 15.8801L28.8495 26.153V29.8661H47.2895Z" fill="#8E9BA6"/>
</g>
</svg>
