<svg width="48" height="31" viewBox="0 0 48 31" fill="none" xmlns="http://www.w3.org/2000/svg">
<g id="01" opacity="0.3">
<path d="M19.6801 26.318C21.6401 23.5951 22.6001 19.9645 22.6001 15.4263C22.6001 10.8881 21.6401 7.25753 19.6801 4.53459C17.7601 1.81166 15.0801 0.450195 11.6001 0.450195C8.1201 0.450195 5.4401 1.81166 3.4801 4.53459C1.5601 7.25753 0.600098 10.8881 0.600098 15.4263C0.600098 19.9645 1.5601 23.5951 3.4801 26.318C5.4401 29.041 8.1201 30.4024 11.6001 30.4024C15.0801 30.4024 17.7601 29.041 19.6801 26.318ZM11.6001 25.7817C7.4801 25.7817 5.2001 22.0686 5.2001 15.4263C5.2001 8.78402 7.4801 5.07093 11.6001 5.07093C15.7601 5.07093 18.0001 8.78402 18.0001 15.4263C18.0001 22.0686 15.7601 25.7817 11.6001 25.7817Z" fill="#8E9BA6"/>
<path d="M46.2198 5.02967V0.986531H29.0198V5.44224H40.7398L34.6998 13.6523L36.5398 16.499H37.5798C40.7798 16.499 42.7798 18.273 42.7798 21.1197C42.7798 23.9664 40.7798 25.7817 37.5798 25.7817C34.7398 25.7817 32.9398 24.544 32.0998 22.0686L28.1798 24.4202C29.6598 28.3396 33.2998 30.4024 37.5798 30.4024C40.3398 30.4024 42.6598 29.5773 44.5398 27.9271C46.4198 26.2768 47.3798 24.0077 47.3798 21.1197C47.3798 16.7878 44.5798 13.7761 40.5398 12.7859L46.2198 5.02967Z" fill="#8E9BA6"/>
</g>
</svg>
